<svg width="50" height="62" viewBox="0 0 50 62" fill="none" xmlns="http://www.w3.org/2000/svg">
<path d="M0.769779 61.0946C0.520026 60.8578 0.322573 60.5714 0.190107 60.2537C0.0576408 59.936 -0.00690897 59.5942 0.000603179 59.2501V37.5066C-0.00356998 37.1694 0.0626861 36.8351 0.195135 36.525C0.327583 36.2149 0.523306 35.9359 0.769779 35.7058C1.00808 35.4656 1.29217 35.2758 1.6052 35.1475C1.91823 35.0192 2.25383 34.955 2.59211 34.9588C2.79807 34.9546 3.00397 34.9695 3.20718 35.0032V31.0059H5.13719V59.2501C5.13719 59.9822 4.88842 60.5971 4.39089 61.0946C4.15734 61.336 3.87669 61.5269 3.56634 61.6554C3.256 61.7839 2.92257 61.8472 2.58673 61.8416C2.2493 61.845 1.91462 61.7806 1.60252 61.6523C1.29042 61.524 1.00724 61.3344 0.769779 61.0946ZM2.15335 59.8652C2.23943 59.9528 2.34978 60.0127 2.47018 60.037C2.59058 60.0614 2.71551 60.0491 2.82889 60.0019C2.94227 59.9546 3.0389 59.8744 3.10632 59.7718C3.17374 59.6691 3.20887 59.5486 3.20718 59.4257V37.3309C3.20991 37.2485 3.19603 37.1663 3.16636 37.0894C3.1367 37.0124 3.09186 36.9422 3.0345 36.8829C2.97715 36.8236 2.90846 36.7765 2.83252 36.7443C2.75658 36.7121 2.67494 36.6955 2.59245 36.6955C2.50997 36.6955 2.42832 36.7121 2.35238 36.7443C2.27644 36.7765 2.20775 36.8236 2.1504 36.8829C2.09304 36.9422 2.0482 37.0124 2.01853 37.0894C1.98887 37.1663 1.97499 37.2485 1.97772 37.3309V59.4257C1.97498 59.5069 1.98891 59.5878 2.01866 59.6634C2.0484 59.7389 2.09333 59.8076 2.15066 59.8652H2.15335Z" fill="white"/>
<path d="M7.17956 48.2468C7.41473 48.0008 7.69783 47.8056 8.01138 47.6733C8.32493 47.541 8.66227 47.4744 9.00257 47.4776C9.20968 47.4898 9.41542 47.5193 9.61763 47.5658V37.3309C9.61763 37.1678 9.55284 37.0114 9.43749 36.896C9.32214 36.7807 9.16569 36.7159 9.00257 36.7159C8.83944 36.7159 8.68299 36.7807 8.56764 36.896C8.45229 37.0114 8.38749 37.1678 8.38749 37.3309V46.8195H6.41105V37.5066C6.40655 37.1694 6.47259 36.8351 6.60493 36.5249C6.73728 36.2148 6.93301 35.9358 7.17956 35.7058C7.41801 35.4657 7.70222 35.2758 8.01535 35.1475C8.32849 35.0192 8.66419 34.955 9.00257 34.9588C9.67806 34.9595 10.3257 35.2282 10.8033 35.7058C11.281 36.1835 11.5496 36.8311 11.5503 37.5066V59.2501C11.5503 59.9823 11.3013 60.5971 10.8034 61.0946C10.5702 61.3357 10.2902 61.5263 9.98041 61.6548C9.67067 61.7833 9.33786 61.8469 9.00257 61.8416C8.66414 61.8457 8.32835 61.7816 8.01518 61.6533C7.702 61.525 7.41783 61.335 7.17956 61.0946C6.92989 60.8578 6.73254 60.5713 6.60019 60.2537C6.46784 59.936 6.40341 59.5941 6.41105 59.2501V50.0691C6.40788 49.729 6.47443 49.3918 6.60661 49.0784C6.73878 48.7649 6.93377 48.4819 7.17956 48.2468ZM8.56313 59.8652C8.64917 59.953 8.75957 60.0131 8.88009 60.0376C9.00061 60.0621 9.1257 60.0499 9.23922 60.0026C9.35274 59.9553 9.44948 59.8751 9.51693 59.7722C9.58439 59.6694 9.61946 59.5487 9.61763 59.4257V49.8935C9.61763 49.7303 9.55284 49.5739 9.43749 49.4585C9.32214 49.3432 9.16569 49.2784 9.00257 49.2784C8.83944 49.2784 8.68299 49.3432 8.56764 49.4585C8.45229 49.5739 8.38749 49.7303 8.38749 49.8935V59.4257C8.38523 59.5071 8.39964 59.5881 8.42985 59.6636C8.46005 59.7392 8.50541 59.8078 8.56313 59.8652Z" fill="white"/>
<path d="M17.2166 35.7058C17.4574 35.9391 17.6479 36.2192 17.7763 36.5289C17.9048 36.8386 17.9685 37.1713 17.9635 37.5066V61.6653H16.0309V37.3309C16.0309 37.1678 15.966 37.0114 15.8507 36.896C15.7353 36.7807 15.5789 36.7159 15.4158 36.7159C15.2527 36.7159 15.0962 36.7807 14.9809 36.896C14.8655 37.0114 14.8007 37.1678 14.8007 37.3309V61.666H12.8243V37.5072C12.8198 37.1701 12.8858 36.8357 13.0181 36.5256C13.1505 36.2155 13.3462 35.9365 13.5928 35.7064C13.8312 35.4663 14.1154 35.2764 14.4285 35.1481C14.7417 35.0198 15.0774 34.9557 15.4158 34.9595C15.751 34.9544 16.0837 35.018 16.3934 35.1464C16.7031 35.2747 16.9832 35.4651 17.2166 35.7058Z" fill="white"/>
<path d="M26.8363 35.7058C27.077 35.9391 27.2674 36.2193 27.3957 36.529C27.5241 36.8387 27.5877 37.1714 27.5826 37.5066V49.2778H24.376V59.4258C24.3744 59.5091 24.3913 59.5917 24.4255 59.6677C24.4598 59.7437 24.5104 59.8111 24.5738 59.8652C24.6997 59.98 24.8645 60.0427 25.0348 60.0408C25.1161 60.0429 25.197 60.0283 25.2726 59.9981C25.3481 59.968 25.4167 59.9227 25.4743 59.8652C25.5318 59.8077 25.577 59.7391 25.6072 59.6635C25.6374 59.588 25.6519 59.5071 25.6499 59.4258V50.5086H27.5826V59.2501C27.5826 59.9823 27.3338 60.5971 26.8363 61.0947C26.603 61.3357 26.3228 61.5264 26.013 61.6549C25.7031 61.7834 25.3702 61.8469 25.0348 61.8416C24.6964 61.8457 24.3606 61.7817 24.0474 61.6533C23.7342 61.525 23.4501 61.335 23.2118 61.0947C22.9622 60.8577 22.765 60.5713 22.6326 60.2536C22.5003 59.936 22.4358 59.5941 22.4433 59.2501V37.5066C22.439 37.1695 22.5052 36.8352 22.6375 36.5251C22.7699 36.215 22.9654 35.936 23.2118 35.7058C23.4503 35.4657 23.7345 35.2758 24.0476 35.1475C24.3607 35.0192 24.6964 34.9551 25.0348 34.9588C25.3702 34.9539 25.703 35.0176 26.0128 35.146C26.3226 35.2745 26.6028 35.465 26.8363 35.7058ZM25.4742 36.8915C25.3882 36.8039 25.2778 36.744 25.1574 36.7197C25.037 36.6953 24.9121 36.7075 24.7987 36.7548C24.6853 36.8021 24.5887 36.8822 24.5213 36.9849C24.4538 37.0876 24.4187 37.2081 24.4204 37.331V47.4776H25.6499V37.331C25.6519 37.2496 25.6374 37.1687 25.6072 37.0932C25.577 37.0177 25.5318 36.949 25.4742 36.8915Z" fill="white"/>
<path d="M28.8565 61.666V28.1076H30.8329V61.666H28.8565Z" fill="white"/>
<path d="M3.17621 31.0113V0H5.15332V31.0113H3.17621Z" fill="white"/>
<path d="M7.15134 30.44C6.90178 30.2031 6.7045 29.9166 6.57215 29.5989C6.43981 29.2813 6.37532 28.9395 6.38284 28.5955V4.43674H8.35928V28.7718C8.35928 28.9349 8.42408 29.0913 8.53943 29.2067C8.65478 29.322 8.81122 29.3868 8.97435 29.3868C9.13748 29.3868 9.29392 29.322 9.40927 29.2067C9.52462 29.0913 9.58942 28.9349 9.58942 28.7718V4.43607H11.5221V28.5948C11.5221 29.327 11.2731 29.9418 10.7751 30.4393C10.5421 30.6804 10.262 30.8711 9.95222 30.9996C9.64247 31.1281 9.30965 31.1916 8.97435 31.1863C8.63597 31.1905 8.30022 31.1265 7.98704 30.9983C7.67387 30.8701 7.38967 30.6802 7.15134 30.44Z" fill="white"/>
<path d="M14.948 29.2105C15.0341 29.2984 15.1445 29.3585 15.265 29.383C15.3855 29.4075 15.5106 29.3953 15.6241 29.348C15.7377 29.3007 15.8344 29.2204 15.9019 29.1176C15.9693 29.0147 16.0044 28.8941 16.0026 28.7711V7.467H17.9353V28.5975C17.9353 29.3296 17.6863 29.9445 17.1883 30.442C16.9552 30.6831 16.6751 30.8737 16.3653 31.0022C16.0556 31.1307 15.7228 31.1942 15.3875 31.189C15.0491 31.193 14.7133 31.129 14.4001 31.0007C14.0869 30.8724 13.8027 30.6824 13.5645 30.442C13.3148 30.2052 13.1175 29.9187 12.9851 29.601C12.8528 29.2834 12.7883 28.9415 12.796 28.5975V0.354645H14.7724V4.43942H17.9353V6.24089H14.7724V28.7744C14.7706 28.8552 14.7852 28.9356 14.8154 29.0105C14.8456 29.0855 14.8907 29.1535 14.948 29.2105Z" fill="white"/>
<path d="M22.2367 6.23753C22.1507 6.14993 22.0404 6.09009 21.9201 6.06571C21.7997 6.04132 21.6748 6.05351 21.5615 6.10071C21.4481 6.1479 21.3515 6.22794 21.284 6.33052C21.2166 6.43309 21.1813 6.55352 21.1829 6.67629L21.1385 16.2086C21.1368 16.2918 21.1538 16.3743 21.188 16.4502C21.2222 16.5261 21.2729 16.5934 21.3363 16.6473C21.4623 16.7625 21.6273 16.8255 21.7979 16.8236C22.1351 16.8194 22.4694 16.8855 22.7794 17.0179C23.0895 17.1502 23.3686 17.3458 23.5988 17.5921C23.8389 17.8306 24.0287 18.1148 24.157 18.4279C24.2853 18.7411 24.3495 19.0768 24.3457 19.4151V28.5955C24.3495 28.9338 24.2853 29.2695 24.157 29.5827C24.0287 29.8958 23.8389 30.18 23.5988 30.4185C23.3686 30.6648 23.0895 30.8604 22.7794 30.9927C22.4694 31.1251 22.1351 31.1912 21.7979 31.187C21.1132 31.1786 20.4588 30.9029 19.9745 30.4187C19.4902 29.9345 19.2143 29.2802 19.2058 28.5955V19.2832H21.1385V28.7718C21.1369 28.8551 21.1538 28.9377 21.188 29.0137C21.2222 29.0897 21.2729 29.1572 21.3363 29.2112C21.4624 29.3261 21.6274 29.3889 21.7979 29.3868C21.8792 29.3888 21.96 29.3742 22.0355 29.3439C22.111 29.3137 22.1795 29.2685 22.237 29.211C22.2944 29.1534 22.3396 29.0849 22.3697 29.0094C22.3999 28.9339 22.4144 28.853 22.4123 28.7718V19.2388C22.4143 19.1576 22.3997 19.0769 22.3695 19.0014C22.3393 18.926 22.2941 18.8575 22.2367 18.8001C22.1793 18.7426 22.1108 18.6974 22.0353 18.6672C21.9599 18.6371 21.8792 18.6225 21.7979 18.6244C21.4595 18.6284 21.1238 18.5643 20.8106 18.436C20.4975 18.3077 20.2133 18.1177 19.9749 17.8775C19.7258 17.6406 19.529 17.3542 19.397 17.0368C19.265 16.7194 19.2008 16.3779 19.2085 16.0343V6.85193C19.2043 6.51476 19.2705 6.18044 19.403 5.87035C19.5354 5.56026 19.7312 5.28123 19.9776 5.05113C20.2161 4.81098 20.5003 4.62113 20.8134 4.49282C21.1265 4.36451 21.4623 4.30036 21.8006 4.30416C22.4761 4.30487 23.1238 4.57353 23.6014 5.05117C24.079 5.52882 24.3477 6.17644 24.3484 6.85193V16.1641H22.415V6.67562C22.4169 6.59428 22.402 6.51344 22.3713 6.43809C22.3406 6.36274 22.2948 6.29448 22.2367 6.23753Z" fill="white"/>
<path d="M30.0146 5.05111C30.2553 5.2845 30.4456 5.56466 30.5739 5.87435C30.7023 6.18404 30.7659 6.51671 30.7609 6.85191V18.6244H27.553V28.7711C27.5514 28.8544 27.5683 28.937 27.6025 29.013C27.6368 29.089 27.6874 29.1565 27.7508 29.2105C27.8767 29.3253 28.0415 29.3881 28.2118 29.3861C28.2931 29.3882 28.374 29.3736 28.4496 29.3435C28.5251 29.3133 28.5937 29.268 28.6512 29.2105C28.7088 29.153 28.754 29.0844 28.7842 29.0088C28.8144 28.9333 28.8289 28.8524 28.8269 28.7711V19.8539H30.7596V28.5954C30.7596 29.3276 30.5108 29.9424 30.0133 30.44C29.78 30.681 29.4998 30.8717 29.19 31.0002C28.8801 31.1287 28.5472 31.1922 28.2118 31.1869C27.8734 31.191 27.5376 31.127 27.2244 30.9986C26.9112 30.8703 26.6271 30.6803 26.3888 30.44C26.1392 30.203 25.9419 29.9166 25.8096 29.5989C25.6773 29.2813 25.6128 28.9395 25.6203 28.5954V6.85191C25.616 6.51479 25.6822 6.1805 25.8145 5.87041C25.9468 5.56032 26.1424 5.28127 26.3888 5.05111C26.6272 4.81099 26.9115 4.62116 27.2246 4.49285C27.5377 4.36455 27.8734 4.30038 28.2118 4.30414C28.5474 4.29899 28.8805 4.3626 29.1905 4.49107C29.5006 4.61954 29.781 4.81013 30.0146 5.05111ZM28.6526 6.23751C28.5665 6.14991 28.4563 6.09007 28.3359 6.06569C28.2156 6.0413 28.0907 6.05349 27.9774 6.10068C27.864 6.14788 27.7674 6.22791 27.6999 6.33049C27.6324 6.43307 27.5972 6.5535 27.5988 6.67627V16.8236H28.8316V6.67627C28.8332 6.59479 28.8182 6.51384 28.7874 6.43839C28.7566 6.36293 28.7108 6.29457 28.6526 6.23751Z" fill="white"/>
<path d="M36.4271 5.0511C36.6679 5.28437 36.8585 5.56449 36.9869 5.8742C37.1154 6.18391 37.1791 6.51665 37.1741 6.8519V31.0106H35.2414V6.67627C35.2414 6.51314 35.1766 6.35669 35.0612 6.24135C34.9459 6.126 34.7894 6.06119 34.6263 6.06119C34.4632 6.06119 34.3067 6.126 34.1914 6.24135C34.076 6.35669 34.0112 6.51314 34.0112 6.67627V31.0113H32.0348V6.85258C32.0303 6.51545 32.0962 6.18109 32.2283 5.87089C32.3604 5.56068 32.5557 5.28147 32.8019 5.0511C33.0404 4.81099 33.3246 4.62116 33.6377 4.49285C33.9509 4.36455 34.2866 4.30038 34.6249 4.30414C34.9604 4.299 35.2934 4.36262 35.6033 4.49109C35.9133 4.61956 36.1936 4.81014 36.4271 5.0511Z" fill="white"/>
<path d="M43.0596 17.7456C43.3977 18.204 43.5821 18.7575 43.5866 19.327V31.0113H41.6539V19.2388C41.6558 19.1576 41.6412 19.0769 41.611 19.0014C41.5808 18.926 41.5357 18.8575 41.4782 18.8001C41.4208 18.7426 41.3523 18.6974 41.2769 18.6672C41.2014 18.6371 41.1207 18.6225 41.0395 18.6244H40.4244V31.0113H38.4473V0.354645H40.4244V16.827H41.0395C41.1207 16.8287 41.2014 16.814 41.2768 16.7837C41.3522 16.7534 41.4206 16.7082 41.478 16.6507C41.5355 16.5932 41.5806 16.5247 41.6108 16.4493C41.6411 16.3739 41.6557 16.2931 41.6539 16.2119V4.43606H43.5866V16.1204C43.5873 16.7042 43.4028 17.2732 43.0596 17.7456Z" fill="white"/>
<path d="M49.2534 5.05113C49.4941 5.28453 49.6844 5.56469 49.8128 5.87438C49.9411 6.18407 50.0047 6.51674 49.9997 6.85193V28.5955C49.9997 29.3276 49.751 29.9425 49.2534 30.44C49.0202 30.6811 48.74 30.8717 48.4301 31.0002C48.1203 31.1287 47.7874 31.1923 47.452 31.187C47.1135 31.191 46.7778 31.127 46.4646 30.9987C46.1514 30.8703 45.8672 30.6804 45.629 30.44C45.3794 30.2031 45.1821 29.9166 45.0498 29.5989C44.9174 29.2813 44.8529 28.9395 44.8605 28.5955V6.85193C44.8562 6.51482 44.9223 6.18052 45.0547 5.87044C45.187 5.56035 45.3826 5.2813 45.629 5.05113C45.8674 4.81102 46.1516 4.62118 46.4648 4.49288C46.7779 4.36457 47.1136 4.3004 47.452 4.30416C47.7873 4.2992 48.1201 4.3629 48.4299 4.49136C48.7398 4.61982 49.02 4.81032 49.2534 5.05113ZM47.8914 6.23753C47.8341 6.17973 47.7655 6.13426 47.6899 6.10394C47.6143 6.07362 47.5334 6.05908 47.452 6.06122C47.2815 6.05949 47.1168 6.1225 46.991 6.23753C46.9276 6.29145 46.8769 6.35878 46.8427 6.43466C46.8085 6.51054 46.7916 6.59307 46.7932 6.67629V28.7711C46.7916 28.8544 46.8085 28.937 46.8427 29.013C46.8769 29.089 46.9276 29.1565 46.991 29.2105C47.1169 29.3253 47.2816 29.3881 47.452 29.3862C47.5333 29.3882 47.6142 29.3737 47.6897 29.3435C47.7653 29.3133 47.8339 29.2681 47.8914 29.2105C47.9489 29.153 47.9942 29.0844 48.0244 29.0089C48.0546 28.9333 48.0691 28.8524 48.067 28.7711V6.67629C48.0691 6.59506 48.0546 6.51425 48.0244 6.43881C47.9942 6.36337 47.949 6.29488 47.8914 6.23753Z" fill="white"/>
<path d="M21.2138 58.6316V61.6693H19.2367V58.6316H21.2138ZM19.2367 29.051H21.2138V57.3234H19.2367V29.051ZM34.0415 58.6316V61.6693H32.0617V58.6316H34.0415Z" fill="white"/>
</svg>
